<svg xmlns="http://www.w3.org/2000/svg" viewBox="0 0 839.86 558.76"><defs><style>.cls-1{isolation:isolate;}.cls-2{fill:#3b3b3b;}.cls-3{fill:#f6b53e;}.cls-4{mix-blend-mode:multiply;}.cls-5{fill:#e0e2e3;}.cls-6{fill:#ff3e3e;}.cls-7{fill:#56abdd;}</style></defs><title>light-bulb</title><g class="cls-1"><g id="Layer_1" data-name="Layer 1"><rect class="cls-2" x="97.27" width="3.43" height="129.77"/><path class="cls-3" d="M146,195.22a55.1,55.1,0,0,0-20.72-18.85c0-.31-.07-43.26-.07-43.26a3.41,3.41,0,0,0-.82-2.21,33.13,33.13,0,0,0-24.13-10.35c-14.91,0-25.29,9.67-25.72,10.08a3.41,3.41,0,0,0-1.08,2.48s0,43.32-.12,43.83A55,55,0,1,0,146,195.22Z"/><g class="cls-4"><path class="cls-5" d="M97,279.24a55,55,0,0,0,25.44-103.76c0-.31-.07-43.26-.07-43.26a3.41,3.41,0,0,0-.82-2.21,33.13,33.13,0,0,0-24.13-10.35c-14.91,0-25.28,9.67-25.72,10.08a3.42,3.42,0,0,0-1.08,2.48s0,43.32-.12,43.83A55,55,0,0,0,97,279.24ZM77.72,138.46l37.58,6.69v8l-37.58-6.85Zm0,14.82,37.58,6.85v6.74l-37.58-6.49Zm18.67,68.38a10.73,10.73,0,0,0-1.32.83,10.76,10.76,0,0,0-1.32-.83A17.67,17.67,0,0,0,88,219.83c1.73-11.61,2.43-32,2.7-43.18.08-3.22.12-5.69.14-7l8.51,1.47c0,1.37.06,3.26.12,5.52.27,11.22,1,31.56,2.7,43.18A17.65,17.65,0,0,0,96.39,221.66ZM98,231.78a3.85,3.85,0,0,1-3,2.61,3.84,3.84,0,0,1-3-2.61c0-.72.77-2.2,3-3.39C97.25,229.58,98.05,231.06,98,231.78ZM75.95,181l1.95-1-.13-12.68,10,1.72c0,1.81-.09,4.41-.18,7.52-.35,12.43-1.17,33-2.75,43.09a10.58,10.58,0,0,0-6.38,2.68,13,13,0,0,0-3.76,7.66,8.32,8.32,0,0,0,2,7.21c1.77,1.64,4.82,1.78,7.6-3.22a34,34,0,0,0,2.83-9.12,15.56,15.56,0,0,1,4,.92A9.28,9.28,0,0,0,89,232.11c.14,3.7,3,7.53,6.07,7.53s5.92-3.83,6.06-7.53a9.27,9.27,0,0,0-2.08-6.25,15.58,15.58,0,0,1,4-.92,33.94,33.94,0,0,0,2.83,9.12c2.78,5,5.83,4.87,7.6,3.22a8.32,8.32,0,0,0,2-7.21,13,13,0,0,0-3.76-7.66,10.59,10.59,0,0,0-6.38-2.68c-1.58-10.14-2.4-30.66-2.75-43.09-.05-1.86-.09-3.54-.13-5l12.82,2.21,0,5.86,2,.94A48.06,48.06,0,1,1,49,224.24,47.76,47.76,0,0,1,75.95,181Zm7.84,44.06a22,22,0,0,1-1.8,5.42c-1.55,2.8-3,2.94-3.8,2.21a1.6,1.6,0,0,1-.53-1.28A7.4,7.4,0,0,1,79.92,227,7.88,7.88,0,0,1,83.79,225.1Zm22.55,0a7.9,7.9,0,0,1,3.88,1.89,7.39,7.39,0,0,1,2.25,4.45,1.59,1.59,0,0,1-.53,1.28c-.78.73-2.25.59-3.8-2.21A22.15,22.15,0,0,1,106.34,225.1Z"/><path class="cls-5" d="M160.8,233a4.2,4.2,0,0,0,4.25,4.15h23a4.15,4.15,0,1,0,0-8.29h-23A4.2,4.2,0,0,0,160.8,233Z"/><path class="cls-5" d="M91.56,287.34a4.2,4.2,0,0,0-4.25,4.15V314a4.25,4.25,0,0,0,8.5,0V291.49A4.2,4.2,0,0,0,91.56,287.34Z"/><path class="cls-5" d="M4.25,233.36h23a4.15,4.15,0,1,0,0-8.3h-23a4.15,4.15,0,1,0,0,8.3Z"/><path class="cls-5" d="M20.49,169.91l18.36,13.56a4.32,4.32,0,0,0,6-.8,4.08,4.08,0,0,0-.82-5.81L25.62,163.3a4.32,4.32,0,0,0-6,.8A4.08,4.08,0,0,0,20.49,169.91Z"/><path class="cls-5" d="M154.22,183.47l18.36-13.56a4.08,4.08,0,0,0,.82-5.81,4.32,4.32,0,0,0-6-.8l-18.35,13.56a4.08,4.08,0,0,0-.82,5.81A4.32,4.32,0,0,0,154.22,183.47Z"/><path class="cls-5" d="M44.62,274.1a4.29,4.29,0,0,0-3,1.21L25.33,291.2a4.08,4.08,0,0,0,0,5.87,4.32,4.32,0,0,0,6,0l16.28-15.89a4.08,4.08,0,0,0,0-5.87A4.29,4.29,0,0,0,44.62,274.1Z"/><path class="cls-5" d="M148.78,275.31a4.33,4.33,0,0,0-6,0,4.08,4.08,0,0,0,0,5.87l16.28,15.89a4.32,4.32,0,0,0,6,0,4.08,4.08,0,0,0,0-5.87Z"/></g><path class="cls-2" d="M99.57,280.13A55,55,0,0,0,125,176.36c0-.31-.07-43.26-.07-43.26a3.41,3.41,0,0,0-.82-2.21A33.13,33.13,0,0,0,100,120.55c-14.91,0-25.29,9.67-25.72,10.08a3.41,3.41,0,0,0-1.08,2.48s0,43.32-.12,43.83A55,55,0,0,0,99.57,280.13ZM80.28,139.35,117.85,146v8l-37.58-6.85Zm0,14.82L117.85,161v6.74l-37.58-6.49Zm18.67,68.38a10.68,10.68,0,0,0-1.32.83,10.75,10.75,0,0,0-1.32-.83,17.68,17.68,0,0,0-5.77-1.83c1.73-11.61,2.43-32,2.7-43.18.08-3.22.12-5.69.14-7l8.51,1.47c0,1.37.06,3.26.12,5.52.27,11.22,1,31.56,2.7,43.18A17.65,17.65,0,0,0,98.94,222.55Zm1.64,10.12a3.84,3.84,0,0,1-3,2.61,3.84,3.84,0,0,1-3-2.61c0-.72.77-2.2,3-3.39C99.81,230.47,100.61,232,100.58,232.67ZM78.51,181.93l1.95-1-.13-12.68,10,1.72c0,1.81-.09,4.41-.18,7.52-.35,12.43-1.17,33-2.75,43.09A10.59,10.59,0,0,0,81,223.31,13,13,0,0,0,77.21,231a8.32,8.32,0,0,0,2,7.21c1.77,1.64,4.82,1.78,7.6-3.22a34,34,0,0,0,2.83-9.12,15.54,15.54,0,0,1,4,.92A9.27,9.27,0,0,0,91.56,233c.14,3.7,3,7.53,6.07,7.53s5.92-3.83,6.06-7.53a9.27,9.27,0,0,0-2.08-6.25,15.58,15.58,0,0,1,4-.92,34,34,0,0,0,2.83,9.12c2.78,5,5.83,4.86,7.6,3.22a8.32,8.32,0,0,0,2-7.21,13,13,0,0,0-3.76-7.66,10.59,10.59,0,0,0-6.38-2.67c-1.58-10.14-2.4-30.66-2.75-43.09-.05-1.86-.09-3.54-.13-5l12.82,2.21,0,5.86,2,.93a48.06,48.06,0,1,1-68.37,43.56A47.77,47.77,0,0,1,78.51,181.93ZM86.35,226a22,22,0,0,1-1.8,5.42c-1.55,2.8-3,2.94-3.8,2.21a1.6,1.6,0,0,1-.53-1.28,7.4,7.4,0,0,1,2.25-4.45A7.9,7.9,0,0,1,86.35,226Zm22.55,0a7.9,7.9,0,0,1,3.88,1.89,7.39,7.39,0,0,1,2.25,4.45,1.59,1.59,0,0,1-.53,1.28c-.78.73-2.25.59-3.8-2.21A22.18,22.18,0,0,1,108.9,226Z"/><path class="cls-2" d="M163.36,233.91a4.2,4.2,0,0,0,4.25,4.15h23a4.15,4.15,0,1,0,0-8.29h-23A4.2,4.2,0,0,0,163.36,233.91Z"/><path class="cls-2" d="M94.12,288.23a4.2,4.2,0,0,0-4.25,4.15v22.47a4.25,4.25,0,0,0,8.5,0V292.38A4.2,4.2,0,0,0,94.12,288.23Z"/><path class="cls-2" d="M6.81,234.25h23a4.15,4.15,0,1,0,0-8.29h-23a4.15,4.15,0,1,0,0,8.29Z"/><path class="cls-2" d="M23,170.8,41.4,184.36a4.32,4.32,0,0,0,6-.8,4.08,4.08,0,0,0-.82-5.81L28.18,164.19a4.32,4.32,0,0,0-6,.8A4.08,4.08,0,0,0,23,170.8Z"/><path class="cls-2" d="M156.78,184.36l18.36-13.56A4.08,4.08,0,0,0,176,165a4.32,4.32,0,0,0-6-.8l-18.35,13.56a4.08,4.08,0,0,0-.82,5.81A4.32,4.32,0,0,0,156.78,184.36Z"/><path class="cls-2" d="M47.17,275a4.29,4.29,0,0,0-3,1.21L27.89,292.09a4.08,4.08,0,0,0,0,5.87,4.32,4.32,0,0,0,6,0l16.28-15.89a4.08,4.08,0,0,0,0-5.87A4.29,4.29,0,0,0,47.17,275Z"/><path class="cls-2" d="M151.34,276.2a4.33,4.33,0,0,0-6,0,4.08,4.08,0,0,0,0,5.87L161.61,298a4.32,4.32,0,0,0,6,0,4.08,4.08,0,0,0,0-5.87Z"/><path class="cls-6" d="M470.91,435a55.1,55.1,0,0,0-20.72-18.86c0-.31-.07-43.26-.07-43.26a3.41,3.41,0,0,0-.82-2.21,33.13,33.13,0,0,0-24.13-10.35c-14.91,0-25.29,9.67-25.72,10.08a3.41,3.41,0,0,0-1.08,2.48s0,43.32-.12,43.83A55,55,0,1,0,470.91,435Z"/><path class="cls-2" d="M421.89,519a55,55,0,0,0,25.44-103.76c0-.31-.07-43.26-.07-43.26a3.4,3.4,0,0,0-.82-2.21,33.13,33.13,0,0,0-24.13-10.35c-14.91,0-25.28,9.67-25.72,10.08a3.42,3.42,0,0,0-1.07,2.48s0,43.32-.12,43.83A55,55,0,0,0,421.89,519ZM402.6,378.22l37.58,6.68v8L402.6,386Zm0,14.82,37.58,6.85v6.74l-37.58-6.49Zm18.67,68.38a10.91,10.91,0,0,0-1.32.83,11.05,11.05,0,0,0-1.32-.83,17.67,17.67,0,0,0-5.77-1.83c1.73-11.61,2.43-32,2.7-43.18.08-3.22.12-5.69.14-7l8.51,1.47c0,1.37.06,3.26.12,5.52.27,11.22,1,31.56,2.7,43.18A17.65,17.65,0,0,0,421.27,461.42Zm1.64,10.12a3,3,0,0,1-5.91,0c0-.72.77-2.2,3-3.39C422.13,469.34,422.93,470.83,422.9,471.54ZM400.83,420.8l1.95-1-.13-12.67,10,1.72c0,1.81-.09,4.41-.18,7.52-.35,12.43-1.17,33-2.75,43.09a10.58,10.58,0,0,0-6.38,2.68,13,13,0,0,0-3.76,7.66,8.32,8.32,0,0,0,2,7.21c1.77,1.64,4.82,1.78,7.6-3.22a34,34,0,0,0,2.83-9.12,15.53,15.53,0,0,1,4,.92,9.29,9.29,0,0,0-2.08,6.25c.14,3.7,3,7.53,6.07,7.53s5.92-3.83,6.06-7.53a9.27,9.27,0,0,0-2.08-6.25,15.54,15.54,0,0,1,4-.92,33.94,33.94,0,0,0,2.83,9.12c2.78,5,5.82,4.87,7.59,3.22a8.31,8.31,0,0,0,2-7.21,13,13,0,0,0-3.76-7.66,10.59,10.59,0,0,0-6.38-2.68c-1.58-10.14-2.4-30.66-2.75-43.09-.05-1.86-.09-3.54-.12-5l12.82,2.21,0,5.86,2,.94A48.06,48.06,0,1,1,373.84,464,47.76,47.76,0,0,1,400.83,420.8Zm7.84,44.06a21.9,21.9,0,0,1-1.8,5.42c-1.55,2.8-3,2.94-3.8,2.21a1.6,1.6,0,0,1-.53-1.28,7.41,7.41,0,0,1,2.25-4.45A7.88,7.88,0,0,1,408.67,464.86Zm22.55,0a7.9,7.9,0,0,1,3.88,1.89,7.39,7.39,0,0,1,2.25,4.45,1.59,1.59,0,0,1-.53,1.28c-.78.73-2.25.59-3.8-2.21A22,22,0,0,1,431.22,464.86Z"/><path class="cls-2" d="M485.68,472.78a4.2,4.2,0,0,0,4.25,4.15h23a4.15,4.15,0,1,0,0-8.29h-23A4.2,4.2,0,0,0,485.68,472.78Z"/><path class="cls-2" d="M416.44,527.1a4.2,4.2,0,0,0-4.25,4.15v22.47a4.25,4.25,0,0,0,8.5,0V531.25A4.2,4.2,0,0,0,416.44,527.1Z"/><path class="cls-2" d="M329.13,473.13h23a4.15,4.15,0,1,0,0-8.3h-23a4.15,4.15,0,1,0,0,8.3Z"/><path class="cls-2" d="M345.37,409.67l18.36,13.56a4.32,4.32,0,0,0,6-.8,4.08,4.08,0,0,0-.82-5.81L350.5,403.06a4.32,4.32,0,0,0-6,.8A4.08,4.08,0,0,0,345.37,409.67Z"/><path class="cls-2" d="M479.1,423.23l18.36-13.56a4.08,4.08,0,0,0,.82-5.81,4.32,4.32,0,0,0-6-.8L474,416.62a4.08,4.08,0,0,0-.82,5.81A4.32,4.32,0,0,0,479.1,423.23Z"/><path class="cls-2" d="M369.49,513.86a4.29,4.29,0,0,0-3,1.21L350.21,531a4.08,4.08,0,0,0,0,5.87,4.33,4.33,0,0,0,6,0l16.28-15.89a4.08,4.08,0,0,0,0-5.87A4.29,4.29,0,0,0,369.49,513.86Z"/><path class="cls-2" d="M473.66,515.07a4.33,4.33,0,0,0-6,0,4.08,4.08,0,0,0,0,5.87l16.28,15.89a4.33,4.33,0,0,0,6,0,4.08,4.08,0,0,0,0-5.87Z"/><path class="cls-2" d="M424.45,519.89a55,55,0,0,0,25.44-103.77c0-.31-.07-43.26-.07-43.26a3.41,3.41,0,0,0-.82-2.21,33.13,33.13,0,0,0-24.13-10.35c-14.91,0-25.29,9.67-25.72,10.08a3.42,3.42,0,0,0-1.08,2.48s0,43.32-.12,43.83a55,55,0,0,0,26.49,103.19ZM405.16,379.11l37.58,6.68v8l-37.58-6.85Zm0,14.82,37.58,6.85v6.74L405.16,401Zm18.67,68.38a10.69,10.69,0,0,0-1.32.83,10.62,10.62,0,0,0-1.32-.83,17.68,17.68,0,0,0-5.77-1.83c1.73-11.62,2.43-32,2.7-43.18.08-3.22.12-5.69.14-7l8.51,1.47c0,1.37.06,3.26.12,5.52.27,11.22,1,31.56,2.7,43.18A17.66,17.66,0,0,0,423.82,462.31Zm1.64,10.13a3,3,0,0,1-5.91,0c0-.72.77-2.2,3-3.39C424.69,470.23,425.49,471.71,425.46,472.44Zm-22.07-50.74,1.95-1-.13-12.68,10,1.72c0,1.81-.09,4.41-.18,7.52-.35,12.43-1.17,33-2.75,43.09a10.58,10.58,0,0,0-6.38,2.68,13,13,0,0,0-3.76,7.66,8.32,8.32,0,0,0,2,7.21c1.77,1.64,4.82,1.78,7.6-3.22a34.08,34.08,0,0,0,2.83-9.12,15.57,15.57,0,0,1,4,.91,9.28,9.28,0,0,0-2.08,6.25c.14,3.7,3,7.53,6.07,7.53s5.92-3.83,6.06-7.53a9.28,9.28,0,0,0-2.08-6.25,15.63,15.63,0,0,1,4-.91,34,34,0,0,0,2.83,9.12c2.78,5,5.82,4.87,7.59,3.22a8.32,8.32,0,0,0,2-7.21,13,13,0,0,0-3.76-7.66,10.58,10.58,0,0,0-6.38-2.68c-1.58-10.14-2.4-30.66-2.75-43.09-.05-1.86-.09-3.54-.12-5l12.82,2.21,0,5.86,2,.93A48.06,48.06,0,1,1,376.4,464.9,47.77,47.77,0,0,1,403.39,421.69Zm7.84,44.06a22.07,22.07,0,0,1-1.8,5.42c-1.55,2.8-3,2.94-3.8,2.21a1.6,1.6,0,0,1-.53-1.29,7.4,7.4,0,0,1,2.25-4.45A7.89,7.89,0,0,1,411.23,465.75Zm22.55,0a7.89,7.89,0,0,1,3.88,1.89,7.38,7.38,0,0,1,2.25,4.45,1.59,1.59,0,0,1-.53,1.29c-.79.73-2.25.59-3.8-2.21A22.14,22.14,0,0,1,433.78,465.75Z"/><path class="cls-2" d="M419,528a4.2,4.2,0,0,0-4.25,4.15v22.47a4.25,4.25,0,0,0,8.5,0V532.14A4.2,4.2,0,0,0,419,528Z"/><rect class="cls-2" x="422.03" width="3.43" height="361.32"/><rect class="cls-2" x="742.64" width="3.43" height="205.78"/><path class="cls-7" d="M791,274.86A55.11,55.11,0,0,0,770.29,256c0-.31-.07-43.26-.07-43.26a3.41,3.41,0,0,0-.82-2.21,33.12,33.12,0,0,0-24.13-10.35c-14.91,0-25.28,9.67-25.72,10.08a3.41,3.41,0,0,0-1.08,2.48s0,43.32-.12,43.83A55,55,0,1,0,791,274.86Z"/><g class="cls-4"><path class="cls-5" d="M742,358.87a55,55,0,0,0,25.44-103.76c0-.31-.07-43.26-.07-43.26a3.4,3.4,0,0,0-.82-2.21,33.12,33.12,0,0,0-24.13-10.35c-14.91,0-25.29,9.67-25.72,10.08a3.42,3.42,0,0,0-1.08,2.48s0,43.32-.12,43.83A55,55,0,0,0,742,358.87ZM722.7,218.09l37.58,6.68v8l-37.58-6.85Zm0,14.82,37.58,6.85v6.74L722.7,240Zm18.67,68.38a10.94,10.94,0,0,0-1.32.83,10.86,10.86,0,0,0-1.32-.83,17.65,17.65,0,0,0-5.77-1.83c1.73-11.61,2.43-32,2.7-43.18.08-3.22.12-5.69.14-7l8.51,1.47c0,1.37.06,3.26.12,5.52.27,11.22,1,31.56,2.7,43.18A17.64,17.64,0,0,0,741.37,301.29ZM743,311.42a3,3,0,0,1-5.91,0c0-.72.77-2.2,3-3.39C742.23,309.21,743,310.7,743,311.42Zm-22.07-50.74,1.95-1L722.75,247l10,1.72c0,1.81-.09,4.41-.18,7.52-.35,12.43-1.17,33-2.75,43.09a10.58,10.58,0,0,0-6.38,2.68,13,13,0,0,0-3.76,7.66,8.32,8.32,0,0,0,2,7.21c1.77,1.64,4.82,1.78,7.59-3.22a34,34,0,0,0,2.83-9.12,15.55,15.55,0,0,1,4,.92,9.28,9.28,0,0,0-2.08,6.25c.14,3.7,3,7.53,6.07,7.53s5.92-3.83,6.06-7.53A9.26,9.26,0,0,0,744,305.5a15.56,15.56,0,0,1,4-.92,34,34,0,0,0,2.82,9.12c2.78,5,5.83,4.87,7.6,3.22a8.32,8.32,0,0,0,2-7.21,13,13,0,0,0-3.76-7.66,10.59,10.59,0,0,0-6.38-2.68c-1.58-10.14-2.4-30.66-2.75-43.09-.05-1.86-.09-3.54-.12-5l12.82,2.21,0,5.86,2,.94a48.06,48.06,0,1,1-68.37,43.56A47.77,47.77,0,0,1,720.93,260.67Zm7.84,44.06a21.94,21.94,0,0,1-1.8,5.42c-1.55,2.8-3,2.94-3.8,2.21a1.6,1.6,0,0,1-.53-1.28,7.4,7.4,0,0,1,2.25-4.45A7.89,7.89,0,0,1,728.77,304.73Zm22.55,0a7.9,7.9,0,0,1,3.88,1.89,7.39,7.39,0,0,1,2.25,4.45,1.59,1.59,0,0,1-.53,1.28c-.78.73-2.25.59-3.8-2.21A22.1,22.1,0,0,1,751.32,304.73Z"/><path class="cls-5" d="M805.78,312.65A4.2,4.2,0,0,0,810,316.8h23a4.15,4.15,0,1,0,0-8.29H810A4.2,4.2,0,0,0,805.78,312.65Z"/><path class="cls-5" d="M736.54,367a4.2,4.2,0,0,0-4.25,4.15v22.47a4.25,4.25,0,0,0,8.5,0V371.12A4.2,4.2,0,0,0,736.54,367Z"/><path class="cls-5" d="M649.23,313h23a4.15,4.15,0,1,0,0-8.3h-23a4.15,4.15,0,1,0,0,8.3Z"/><path class="cls-5" d="M665.47,249.55l18.36,13.56a4.32,4.32,0,0,0,6-.8,4.08,4.08,0,0,0-.82-5.81L670.6,242.93a4.32,4.32,0,0,0-6,.8A4.08,4.08,0,0,0,665.47,249.55Z"/><path class="cls-5" d="M799.2,263.11l18.36-13.56a4.08,4.08,0,0,0,.82-5.81,4.32,4.32,0,0,0-6-.8l-18.35,13.56a4.08,4.08,0,0,0-.82,5.81A4.32,4.32,0,0,0,799.2,263.11Z"/><path class="cls-5" d="M689.6,353.73a4.29,4.29,0,0,0-3,1.21l-16.28,15.89a4.08,4.08,0,0,0,0,5.87,4.32,4.32,0,0,0,6,0l16.28-15.89a4.08,4.08,0,0,0,0-5.87A4.29,4.29,0,0,0,689.6,353.73Z"/><path class="cls-5" d="M793.77,354.94a4.33,4.33,0,0,0-6,0,4.08,4.08,0,0,0,0,5.87L804,376.7a4.32,4.32,0,0,0,6,0,4.08,4.08,0,0,0,0-5.87Z"/></g><path class="cls-2" d="M744.55,359.76A55,55,0,0,0,770,256c0-.31-.07-43.26-.07-43.26a3.41,3.41,0,0,0-.82-2.21A33.13,33.13,0,0,0,745,200.18c-14.91,0-25.29,9.67-25.72,10.08a3.41,3.41,0,0,0-1.08,2.48s0,43.32-.12,43.83a55,55,0,0,0,26.49,103.19ZM725.26,219l37.58,6.68v8l-37.58-6.85Zm0,14.82,37.58,6.85v6.74l-37.58-6.49Zm18.67,68.38a10.61,10.61,0,0,0-1.32.83,10.62,10.62,0,0,0-1.32-.83,17.66,17.66,0,0,0-5.77-1.83c1.73-11.61,2.43-32,2.7-43.18.08-3.22.12-5.69.14-7l8.51,1.47c0,1.37.06,3.26.12,5.52.27,11.22,1,31.56,2.7,43.18A17.64,17.64,0,0,0,743.92,302.19Zm1.64,10.12a3,3,0,0,1-5.91,0c0-.72.77-2.2,3-3.39C744.79,310.11,745.59,311.59,745.56,312.31Zm-22.08-50.74,1.95-1-.13-12.68,10,1.72c0,1.81-.09,4.41-.18,7.52-.35,12.43-1.17,33-2.75,43.09a10.59,10.59,0,0,0-6.38,2.67,13,13,0,0,0-3.76,7.66,8.32,8.32,0,0,0,2,7.21c1.77,1.64,4.82,1.78,7.6-3.22a34.05,34.05,0,0,0,2.83-9.12,15.57,15.57,0,0,1,4,.91,9.28,9.28,0,0,0-2.08,6.25c.14,3.7,3,7.53,6.07,7.53s5.92-3.83,6.06-7.53a9.27,9.27,0,0,0-2.08-6.25,15.62,15.62,0,0,1,4-.91,34,34,0,0,0,2.83,9.12c2.78,5,5.83,4.86,7.6,3.22a8.32,8.32,0,0,0,2-7.21,13,13,0,0,0-3.76-7.66,10.59,10.59,0,0,0-6.38-2.67c-1.58-10.14-2.4-30.66-2.75-43.09-.05-1.86-.09-3.54-.12-5l12.82,2.21,0,5.86,2,.93a48.06,48.06,0,1,1-68.37,43.56A47.77,47.77,0,0,1,723.49,261.57Zm7.85,44.06a22.12,22.12,0,0,1-1.8,5.42c-1.55,2.8-3,2.94-3.8,2.21a1.6,1.6,0,0,1-.53-1.29,7.4,7.4,0,0,1,2.25-4.45A7.89,7.89,0,0,1,731.33,305.62Zm22.55,0a7.9,7.9,0,0,1,3.88,1.89A7.39,7.39,0,0,1,760,312a1.59,1.59,0,0,1-.53,1.29c-.79.73-2.25.59-3.8-2.21A22.2,22.2,0,0,1,753.88,305.62Z"/><path class="cls-2" d="M808.34,313.54a4.2,4.2,0,0,0,4.25,4.15h23a4.15,4.15,0,1,0,0-8.3h-23A4.2,4.2,0,0,0,808.34,313.54Z"/><path class="cls-2" d="M739.1,367.87a4.2,4.2,0,0,0-4.25,4.15v22.47a4.25,4.25,0,0,0,8.5,0V372A4.2,4.2,0,0,0,739.1,367.87Z"/><path class="cls-2" d="M651.79,313.89h23a4.15,4.15,0,1,0,0-8.3h-23a4.15,4.15,0,1,0,0,8.3Z"/><path class="cls-2" d="M668,250.44,686.38,264a4.32,4.32,0,0,0,6-.8,4.08,4.08,0,0,0-.82-5.81l-18.36-13.56a4.32,4.32,0,0,0-6,.8A4.08,4.08,0,0,0,668,250.44Z"/><path class="cls-2" d="M801.76,264l18.35-13.56a4.08,4.08,0,0,0,.82-5.81,4.32,4.32,0,0,0-6-.8l-18.35,13.56a4.08,4.08,0,0,0-.82,5.81A4.32,4.32,0,0,0,801.76,264Z"/><path class="cls-2" d="M692.15,354.62a4.29,4.29,0,0,0-3,1.21l-16.28,15.89a4.08,4.08,0,0,0,0,5.87,4.32,4.32,0,0,0,6,0l16.28-15.89a4.08,4.08,0,0,0,0-5.87A4.29,4.29,0,0,0,692.15,354.62Z"/><path class="cls-2" d="M796.32,355.84a4.32,4.32,0,0,0-6,0,4.08,4.08,0,0,0,0,5.87l16.28,15.89a4.32,4.32,0,0,0,6,0,4.08,4.08,0,0,0,0-5.87Z"/></g></g></svg>