<svg id="Layer_1" data-name="Layer 1" xmlns="http://www.w3.org/2000/svg" viewBox="0 0 1542.71 945.51"><defs><style>.cls-1{fill:#f39c12;}</style></defs><title>logo</title><path class="cls-1" d="M480,738V677.16h22.89c9.76,0,16.6,5.47,16.6,15.5a14,14,0,0,1-10.76,14c6.47,1,11.95,7.93,11.95,15,0,10.4-6.75,16.41-17.42,16.41Zm36.29-45.32c0-6.93-4.47-12.77-13.4-12.77h-20v25.44h20C511.82,705.33,516.29,699.68,516.29,692.66Zm1.19,29c0-6.93-4.74-13.59-14.23-13.59H482.92v27.17h20.33C512.19,735.24,517.48,730,517.48,721.65Z" transform="translate(-61.92 -147.54)"/><path class="cls-1" d="M598.08,738l-18.51-26.26H565V738h-2.92V677.16h21c9.85,0,18,6.11,18,17.23s-8.12,17.33-18,17.33L601.82,738Zm-.27-43.59c0-8.39-5.84-14.5-14.77-14.5H565V709H583C592,709,597.81,702.78,597.81,694.39Z" transform="translate(-61.92 -147.54)"/><path class="cls-1" d="M686.89,738l-6.75-16.32H646.22L639.47,738H636.1l25.35-60.82h3.47L690.27,738Zm-23.71-57.45-15.87,38.39H679Z" transform="translate(-61.92 -147.54)"/><path class="cls-1" d="M771.51,738l-41-56.08V738h-2.92V677.16h2.92l41,55.53V677.16h2.92V738Z" transform="translate(-61.92 -147.54)"/><path class="cls-1" d="M817.83,738V677.16h18.05c18.88,0,30.27,14.22,30.27,30.46,0,16.41-11.4,30.37-30.27,30.37ZM863,707.61c0-15.23-9.85-27.72-27.08-27.72H820.74v55.35h15.14C853.11,735.24,863,723,863,707.61Z" transform="translate(-61.92 -147.54)"/><path class="cls-1" d="M907.55,738V677.16h2.92V738Z" transform="translate(-61.92 -147.54)"/><path class="cls-1" d="M997.82,738l-41-56.08V738h-2.92V677.16h2.92l41,55.53V677.16h2.92V738Z" transform="translate(-61.92 -147.54)"/><path class="cls-1" d="M1042,707.61c0-18.69,13.5-31.46,30.37-31.46a29.44,29.44,0,0,1,22.25,9.39l-1.92,2c-4.74-5.38-12.22-8.66-20.33-8.66-15.23,0-27.17,11.58-27.17,28.72,0,17,11.95,28.82,27.17,28.82a27.18,27.18,0,0,0,19.33-8.21V711.53h-25.08V708.8h28v20.61a29.69,29.69,0,0,1-22.25,9.76C1055.54,739.16,1042,726.3,1042,707.61Z" transform="translate(-61.92 -147.54)"/><path class="cls-1" d="M806.34,929.83c-2.37-2-5.56-5-8.75-8.12-4.19,5.29-10,9.21-18.15,9.21-9.76,0-17.87-5.56-17.87-16.32,0-9.76,6.66-14.68,13.77-18.69-3.1-4.83-5.29-9.76-5.29-14.13a13.41,13.41,0,0,1,13.59-13.68c7.2,0,11.85,3.92,11.85,11.13,0,9-8.12,13.13-16,17.51a96.86,96.86,0,0,0,8.57,10.49c3.19,3.56,6.11,6.66,9.12,9.67a67.33,67.33,0,0,0,7.2-15.59l2.92,1.09c-1.82,4.74-4.1,11.22-7.84,16.78,3.46,3.37,7.2,6.84,11.67,10.67Zm-11-10.4c-4-4.1-7.75-8-9.57-10.21a135.83,135.83,0,0,1-8.85-10.94c-6.47,3.74-12.13,8.21-12.13,16.32,0,9,7,13.59,14.68,13.59C786.19,928.19,791.38,924.36,795.31,919.44ZM778,894.36c7.29-3.92,14.32-7.57,14.32-15.14,0-5.56-3.74-8.39-8.66-8.39-5.65,0-10.4,4.47-10.4,10.94C773.24,885.7,775.24,890.17,778,894.36Z" transform="translate(-61.92 -147.54)"/><path class="cls-1" d="M272.75,997.62l15.08-41.74,12.39,4.48c13,4.68,17.25,17.27,13.22,28.41s-15.35,18-28.31,13.33ZM311.26,988c3.78-10.45.12-21.47-11.71-25.74l-10.39-3.75-13.73,38,10.39,3.75C297.65,1004.5,307.44,998.55,311.26,988Z" transform="translate(-61.92 -147.54)"/><path class="cls-1" d="M346.73,1023.07l13-42.44,26,8-.58,1.91-23.92-7.33-5.44,17.75,23.48,7.19-.58,1.91-23.48-7.19-5.81,19,23.92,7.33-.58,1.91Z" transform="translate(-61.92 -147.54)"/><path class="cls-1" d="M413.14,1035.91l2.06-1.05a17.7,17.7,0,0,0,11.71,9.79c9.93,2.54,13.89-2.5,14.93-6.56,3.62-14.18-24.28-13.82-20.53-28.52,1.78-7,9.18-9.33,16.27-7.52,6.32,1.61,10.3,5.1,12.38,9.62l-2,1.07c-2-4.71-5.92-7.49-10.88-8.75-6.25-1.6-12.17.87-13.52,6.16-3.13,12.25,24.63,12.47,20.53,28.52-1.23,4.83-6.07,10.88-17.68,7.92A19.35,19.35,0,0,1,413.14,1035.91Z" transform="translate(-61.92 -147.54)"/><path class="cls-1" d="M483,1059l9.27-43.4,2.08.44-9.27,43.4Z" transform="translate(-61.92 -147.54)"/><path class="cls-1" d="M530.93,1046.11c2.28-13.45,13.55-21,25.69-18.92a21.48,21.48,0,0,1,14.86,9.47l-1.62,1.21a19.78,19.78,0,0,0-13.57-8.72c-11-1.86-21,5-23.06,17.34s5.07,22.19,16,24a19.83,19.83,0,0,0,14.91-3.54l2-12-18-3.06.33-2,20.14,3.42-2.52,14.83a21.66,21.66,0,0,1-17.2,4.3C536.78,1070.46,528.65,1059.56,530.93,1046.11Z" transform="translate(-61.92 -147.54)"/><path class="cls-1" d="M639.46,1084.11l-25-44.11-4.72,40.65-2.12-.25,5.12-44.09,2.12.25,25.07,43.71,4.67-40.26,2.12.25-5.12,44.09Z" transform="translate(-61.92 -147.54)"/><path class="cls-1" d="M733.85,1084.89l1.78-1.47a17.69,17.69,0,0,0,13.55,7c10.24.34,13-5.42,13.17-9.61.49-14.63-26.69-8.28-26.18-23.44.24-7.18,7-11.09,14.27-10.84,6.52.22,11.16,2.77,14.16,6.73l-1.71,1.47c-3-4.16-7.39-6-12.51-6.21-6.45-.21-11.7,3.47-11.88,8.92-.42,12.63,26.73,6.88,26.18,23.44-.17,5-3.59,11.93-15.56,11.53A19.35,19.35,0,0,1,733.85,1084.89Z" transform="translate(-61.92 -147.54)"/><path class="cls-1" d="M806.26,1070.47c-.23-12.84,7.77-23.1,20.67-23.33s21.27,9.73,21.51,22.57-7.83,23.1-20.67,23.33S806.49,1083.31,806.26,1070.47Zm39.85-.72c-.22-12.17-7.76-20.82-19.14-20.62s-18.6,9.12-18.38,21.3,7.63,20.83,19.14,20.62S846.32,1081.79,846.11,1069.75Z" transform="translate(-61.92 -147.54)"/><path class="cls-1" d="M891.7,1089.79l-3-44.28,2.13-.14,2.84,42.29,22.24-1.49.13,2Z" transform="translate(-61.92 -147.54)"/><path class="cls-1" d="M953.57,1067.92l-3.11-27.37,2.12-.24,3.11,27.37c1.11,9.79,6.79,15,16,13.91s13.63-7.38,12.51-17.16l-3.11-27.37,2.12-.24,3.11,27.37c1.24,10.91-3.69,18.17-14.4,19.39S954.81,1078.77,953.57,1067.92Z" transform="translate(-61.92 -147.54)"/><path class="cls-1" d="M1043.77,1072.85l-6.84-41.82-14.77,2.42-.32-2,31.71-5.19.32,2-14.84,2.43,6.84,41.82Z" transform="translate(-61.92 -147.54)"/><path class="cls-1" d="M1101.2,1062.34l-8.86-43.49,2.09-.43,8.87,43.49Z" transform="translate(-61.92 -147.54)"/><path class="cls-1" d="M1139.94,1031.33c-3.11-12.46,2.38-24.26,14.9-27.39s22.92,4.7,26,17.16-2.44,24.27-14.9,27.39S1143.05,1043.79,1139.94,1031.33Zm38.67-9.66c-3-11.81-12.25-18.55-23.29-15.79s-16.08,13.07-13.13,24.88,12.12,18.58,23.29,15.79S1181.53,1033.36,1178.61,1021.67Z" transform="translate(-61.92 -147.54)"/><path class="cls-1" d="M1258.14,1021.54l-40.67-30.28,12.06,39.1-2,.63-13.08-42.41,2-.63,40.55,29.9-11.94-38.72,2-.63,13.08,42.41Z" transform="translate(-61.92 -147.54)"/><path class="cls-1" d="M1297.95,1001.6l1.1-2a17.7,17.7,0,0,0,15.2,1.48c9.63-3.51,10.07-9.9,8.63-13.84-5-13.76-27.85,2.28-33-12-2.46-6.75,2.32-12.88,9.2-15.39,6.13-2.23,11.39-1.6,15.65,1l-1,2c-4.33-2.74-9.11-2.84-13.92-1.09-6.07,2.21-9.56,7.59-7.69,12.72,4.33,11.88,27.37-3.59,33,12,1.71,4.69,1.12,12.41-10.14,16.51A19.36,19.36,0,0,1,1297.95,1001.6Z" transform="translate(-61.92 -147.54)"/><path class="cls-1" d="M219.64,848.14H61.92v-690h39.43V809.7H219.64Z" transform="translate(-61.92 -147.54)"/><path class="cls-1" d="M192.89,233.5q0-42.58,18.53-64.27t60.33-21.69q41.79,0,60.33,21.69t18.53,64.27V628.59q0,42.58-18.53,64.67t-60.33,22.08q-41.81,0-60.33-22.08t-18.53-64.67Zm31.54,395.09q0,27.61,11,42.19t36.28,14.59q25.23,0,36.28-14.59t11-42.19V233.5q0-27.6-11-41.8t-36.28-14.2q-25.25,0-36.28,14.2t-11,41.8Z" transform="translate(-61.92 -147.54)"/><path class="cls-1" d="M1264,155.43h78.86q41.79,0,60.33,24.05t18.53,69.79v164q0,45.75-18.53,70.19t-60.33,24.45h-47.32V707.45H1264Zm31.54,30V478h47.32q25.23,0,36.28-17t11-47.71v-164q0-30.76-11-47.32t-36.28-16.56Z" transform="translate(-61.92 -147.54)"/><path class="cls-1" d="M514.05,179.47H427.8V381h72.45v26.22H427.8v228.4H400.2v-483H514.05Z" transform="translate(-61.92 -147.54)"/><path class="cls-1" d="M1149.08,455.88V638h-27.6V455.88L1048.34,155h27.6l46.23,193.21,13.11,77.28,13.11-77.28L1195.31,155h27.6Z" transform="translate(-61.92 -147.54)"/><path class="cls-1" d="M541,153.92h124.7V176h-51V550.69H592V176H541Z" transform="translate(-61.92 -147.54)"/><path class="cls-1" d="M784.13,401.05V550.69H761.45V401.05L701.37,153.92H724l38,158.71,10.77,63.48,10.77-63.48L822.1,153.92h22.67Z" transform="translate(-61.92 -147.54)"/><path class="cls-1" d="M880.48,153.92h124.7V176h-51V550.69H931.49V176h-51Z" transform="translate(-61.92 -147.54)"/><path class="cls-1" d="M1604.63,196.56H1481.41V484.4h103.5v37.46h-103.5V809.7h123.22v38.44H1442v-690h162.65Z" transform="translate(-61.92 -147.54)"/></svg>